<?xml version="1.0" encoding="utf-8"?>
<!-- Generator: Adobe Illustrator 19.0.0, SVG Export Plug-In . SVG Version: 6.00 Build 0)  -->
<svg version="1.1" id="Livello_1" xmlns="http://www.w3.org/2000/svg" xmlns:xlink="http://www.w3.org/1999/xlink" x="0px" y="0px"
	 viewBox="-280 372 50 50" style="enable-background:new -280 372 50 50;" xml:space="preserve">
<style type="text/css">
	.st0{fill:#FFFFFF;}
</style>
<g id="Layer_2">
</g>
<path class="st0" d="M-258.8,395c0.4-0.2,0.6-0.7,0.6-1.3c0-0.7-0.2-1.2-0.8-1.4c-0.5-0.2-1-0.2-1.8-0.2h-2.8v3.3h3.2
	C-259.8,395.4-259.2,395.3-258.8,395z"/>
<path class="st0" d="M-260.3,397.9h-3.2v4h3.2c1.4,0,2.5-0.2,2.5-2.1C-257.9,398.2-258.9,397.9-260.3,397.9z"/>
<path class="st0" d="M-248.3,395.3c-1.5,0-2.2,1-2.4,2.3h4.8c-0.1-0.7-0.3-1.3-0.7-1.7C-247.1,395.5-247.7,395.3-248.3,395.3z"/>
<path class="st0" d="M-239.7,381.9c-3.9-3.8-9.2-6.3-15.1-6.3h-0.4c-5.9,0.1-11.2,2.5-15,6.3c-3.8,3.9-6.2,9.2-6.2,15.1
	c0,5.9,2.4,11.3,6.3,15.2c3.9,3.9,9.3,6.3,15.2,6.3c5.9,0,11.3-2.4,15.2-6.3c3.8-3.9,6.2-9.3,6.2-15.2
	C-233.6,391.1-235.9,385.8-239.7,381.9z M-251.3,390.1h6v1.5h-6V390.1z M-256.5,403.5c-0.4,0.4-1,0.6-1.6,0.8
	c-0.7,0.1-1.4,0.2-2.1,0.2h-6.7v-14.9h7.2c1.8,0,3.1,0.5,3.9,1.6c0.4,0.7,0.7,1.4,0.7,2.3c0,0.9-0.2,1.6-0.7,2.2
	c-0.2,0.3-0.5,0.6-1.1,0.9c1.6,0.7,2.3,2,2.3,3.5C-254.7,401.6-255.6,402.8-256.5,403.5z M-248.1,402.1c0.6,0,1.2-0.2,1.6-0.5
	c0.2-0.2,0.4-0.4,0.5-0.7h2.9c-0.1,0.6-0.4,1.3-1,2c-0.9,1-2.3,1.5-4,1.5c-2.9,0-5.4-1.6-5.4-5.6c0-1.8,0.5-3.2,1.5-4.3
	c1-1,2.3-1.5,3.8-1.5c0.9,0,1.7,0.2,2.5,0.5c1.5,0.8,2.4,2.3,2.7,3.8c0.1,0.5,0.1,1.2,0.1,2.1h-7.8
	C-250.8,401.5-249.4,402.1-248.1,402.1z"/>
</svg>
