<?xml version="1.0" encoding="utf-8"?>
<!-- Generator: Adobe Illustrator 19.0.0, SVG Export Plug-In . SVG Version: 6.00 Build 0)  -->
<svg version="1.1" id="Layer_1" xmlns="http://www.w3.org/2000/svg" xmlns:xlink="http://www.w3.org/1999/xlink" x="0px" y="0px"
	 viewBox="-277 368.3 56.7 56.7" style="enable-background:new -277 368.3 56.7 56.7;" xml:space="preserve">
<style type="text/css">
	.st0{fill:#FFFFFF;}
</style>
<g>
	<polygon class="st0" points="-238.5,392.7 -238.5,388.8 -238.5,388.2 -239.1,388.2 -243,388.2 -243,392.7 	"/>
	<path class="st0" d="M-248.8,403.2c2.6,0,4.7-2.1,4.7-4.7c0-1-0.3-2-0.9-2.7c-0.9-1.2-2.2-2-3.8-2c-1.6,0-3,0.8-3.8,2
		c-0.6,0.8-0.9,1.7-0.9,2.7C-253.5,401.1-251.4,403.2-248.8,403.2z"/>
	<path class="st0" d="M-248.7,373.5c-13.6,0-24.6,11-24.6,24.6c0,13.6,11,24.6,24.6,24.6c13.6,0,24.6-11,24.6-24.6
		C-224,384.5-235.1,373.5-248.7,373.5z M-235.4,395.7v11c0,2.9-2.3,5.2-5.2,5.2H-257c-2.9,0-5.2-2.3-5.2-5.2v-11v-5.5
		c0-2.9,2.3-5.2,5.2-5.2h16.4c2.9,0,5.2,2.3,5.2,5.2C-235.4,390.3-235.4,395.7-235.4,395.7z"/>
	<path class="st0" d="M-241.5,398.5c0,4-3.3,7.3-7.3,7.3c-4,0-7.3-3.3-7.3-7.3c0-1,0.2-1.9,0.5-2.7h-4v11c0,1.4,1.1,2.6,2.6,2.6
		h16.4c1.4,0,2.6-1.1,2.6-2.6v-11h-4C-241.6,396.6-241.5,397.5-241.5,398.5z"/>
</g>
</svg>
