<?xml version="1.0" encoding="utf-8"?>
<!-- Generator: Adobe Illustrator 19.0.0, SVG Export Plug-In . SVG Version: 6.00 Build 0)  -->
<svg version="1.1" id="Layer_1" xmlns="http://www.w3.org/2000/svg" xmlns:xlink="http://www.w3.org/1999/xlink" x="0px" y="0px"
	 viewBox="-277 368.3 56.7 56.7" style="enable-background:new -277 368.3 56.7 56.7;" xml:space="preserve">
<g>
	<path d="M-249.2,400.8l-13.5-8v13.7c0,0.1,0.2,0.3,0.5,0.3h26c0.3,0,0.5-0.2,0.5-0.3v-13.6L-249.2,400.8z"/>
	<path d="M-249.1,397.8l13.1-7.7c0,0-0.1,0-0.1,0h-25.9L-249.1,397.8z"/>
	<path d="M-248.9,373c-13.7,0-24.9,11.1-24.9,24.9c0,13.7,11.1,24.9,24.9,24.9c13.7,0,24.9-11.1,24.9-24.9
		C-224,384.1-235.1,373-248.9,373z M-233.3,406.5c0,1.7-1.3,3.1-2.8,3.1h-26c-1.6,0-2.8-1.4-2.8-3.1v-16c0-1.7,1.3-3.1,2.8-3.1h26
		c1.6,0,2.8,1.4,2.8,3.1V406.5z"/>
</g>
</svg>
