<?xml version="1.0" encoding="utf-8"?>
<!-- Generator: Adobe Illustrator 19.0.0, SVG Export Plug-In . SVG Version: 6.00 Build 0)  -->
<svg version="1.1" id="Layer_1" xmlns="http://www.w3.org/2000/svg" xmlns:xlink="http://www.w3.org/1999/xlink" x="0px" y="0px"
	 viewBox="-277 368.3 56.7 56.7" style="enable-background:new -277 368.3 56.7 56.7;" xml:space="preserve">
<style type="text/css">
	.st0{fill:#FFFFFF;}
</style>
<g>
	<path class="st0" d="M-247.2,384.5c-6.8,0-12.3,5.5-12.3,12.3c0,2.3,0.6,4.6,1.9,6.5l0.3,0.5l-1.2,4.5l4.6-1.2l0.4,0.3
		c1.9,1.1,4,1.7,6.3,1.7h0c6.8,0,12.3-5.5,12.3-12.3c0-3.3-1.3-6.4-3.6-8.7C-240.9,385.8-244,384.5-247.2,384.5z M-240,402
		c-0.3,0.9-1.8,1.6-2.5,1.8c-0.6,0.1-1.4,0.1-2.3-0.1c-0.5-0.2-1.2-0.4-2.1-0.8c-3.7-1.6-6.1-5.3-6.3-5.6c-0.2-0.2-1.5-2-1.5-3.8
		c0-1.8,1-2.7,1.3-3.1c0.3-0.4,0.7-0.5,1-0.5s0.5,0,0.7,0c0.2,0,0.5-0.1,0.8,0.6c0.3,0.7,1,2.6,1.1,2.7c0.1,0.2,0.2,0.4,0,0.6
		c-0.1,0.2-0.2,0.4-0.4,0.6c-0.2,0.2-0.4,0.5-0.6,0.6c-0.2,0.2-0.4,0.4-0.2,0.8c0.2,0.4,1,1.6,2.1,2.6c1.4,1.3,2.6,1.6,3,1.8
		c0.4,0.2,0.6,0.2,0.8-0.1c0.2-0.2,0.9-1.1,1.2-1.4c0.2-0.4,0.5-0.3,0.8-0.2c0.3,0.1,2.2,1,2.5,1.2c0.4,0.2,0.6,0.3,0.7,0.4
		C-239.7,400.4-239.7,401.2-240,402z"/>
	<path class="st0" d="M-247.8,372.7c-13.6,0-24.6,11-24.6,24.6c0,13.6,11,24.6,24.6,24.6c13.6,0,24.6-11,24.6-24.6
		C-223.2,383.7-234.2,372.7-247.8,372.7z M-247.3,411.6C-247.3,411.6-247.3,411.6-247.3,411.6L-247.3,411.6c-2.5,0-4.9-0.6-7.1-1.8
		l-7.8,2.1l2.1-7.7c-1.3-2.2-2-4.8-2-7.4c0-8.1,6.6-14.8,14.8-14.8c4,0,7.7,1.5,10.5,4.3c2.8,2.8,4.3,6.5,4.3,10.5
		C-232.5,404.9-239.1,411.6-247.3,411.6z"/>
</g>
</svg>
