<?xml version="1.0" standalone="no"?>
<!DOCTYPE svg PUBLIC "-//W3C//DTD SVG 20010904//EN"
 "http://www.w3.org/TR/2001/REC-SVG-20010904/DTD/svg10.dtd">
<svg version="1.0" xmlns="http://www.w3.org/2000/svg"
 width="558.000000pt" height="558.000000pt" viewBox="0 0 558.000000 558.000000"
 preserveAspectRatio="xMidYMid meet">
<metadata>
Created by potrace 1.11, written by Peter Selinger 2001-2013
</metadata>
<g transform="translate(0.000000,558.000000) scale(0.100000,-0.100000)"
fill="#000000" stroke="none">
<path d="M0 2790 l0 -2790 2790 0 2790 0 0 2790 0 2790 -2790 0 -2790 0 0
-2790z m3022 2139 c251 -50 464 -160 649 -337 206 -196 332 -423 390 -705 17
-80 21 -137 21 -268 l0 -167 56 -22 c159 -60 330 -178 465 -319 237 -249 359
-556 360 -906 1 -366 -140 -696 -404 -950 -191 -183 -398 -291 -662 -346 -143
-30 -362 -30 -504 0 -194 40 -365 114 -512 220 -42 30 -80 54 -86 54 -5 0 -44
-24 -86 -54 -147 -106 -318 -180 -512 -220 -142 -30 -361 -30 -504 0 -264 55
-471 163 -662 346 -204 197 -336 443 -386 720 -22 119 -22 341 0 460 49 276
183 526 386 720 105 101 187 159 320 229 80 42 103 58 101 73 -1 10 -3 88 -3
173 -2 280 66 508 218 738 66 100 198 241 296 316 300 230 687 319 1059 245z"/>
</g>
</svg>
